<svg id="SvgjsSvg1180" width="486" height="315" xmlns="http://www.w3.org/2000/svg" version="1.1" xmlns:xlink="http://www.w3.org/1999/xlink" xmlns:svgjs="http://svgjs.com/svgjs"><defs id="SvgjsDefs1181"><pattern patternUnits="userSpaceOnUse" id="pattern_mark_0" width="300" height="300"><text x="150" y="100" fill="rgba(229,229,229,0.8)" font-size="18" transform="rotate(-45, 150, 150)" style="dominant-baseline: middle; text-anchor: middle;"></text></pattern><pattern patternUnits="userSpaceOnUse" id="pattern_mark_1" width="300" height="300"><text x="150" y="200" fill="rgba(229,229,229,0.8)" font-size="18" transform="rotate(-45, 150, 150)" style="dominant-baseline: middle; text-anchor: middle;"></text></pattern><marker id="SvgjsMarker1213" markerWidth="13" markerHeight="9" refX="9.5" refY="4.5" viewBox="0 0 13 9" orient="auto" markerUnits="userSpaceOnUse" stroke-dasharray="0,0"><path id="SvgjsPath1214" d="M0,0 L13,4.5 L0,9 L0,0" fill="#323232" stroke="#323232" stroke-width="1"></path></marker><marker id="SvgjsMarker1217" markerWidth="13" markerHeight="9" refX="9.5" refY="4.5" viewBox="0 0 13 9" orient="auto" markerUnits="userSpaceOnUse" stroke-dasharray="0,0"><path id="SvgjsPath1218" d="M0,0 L13,4.5 L0,9 L0,0" fill="#323232" stroke="#323232" stroke-width="1"></path></marker><marker id="SvgjsMarker1245" markerWidth="13" markerHeight="9" refX="9.5" refY="4.5" viewBox="0 0 13 9" orient="auto" markerUnits="userSpaceOnUse" stroke-dasharray="0,0"><path id="SvgjsPath1246" d="M0,0 L13,4.5 L0,9 L0,0" fill="#323232" stroke="#323232" stroke-width="1"></path></marker><marker id="SvgjsMarker1249" markerWidth="13" markerHeight="9" refX="9.5" refY="4.5" viewBox="0 0 13 9" orient="auto" markerUnits="userSpaceOnUse" stroke-dasharray="0,0"><path id="SvgjsPath1250" d="M0,0 L13,4.5 L0,9 L0,0" fill="#323232" stroke="#323232" stroke-width="1"></path></marker><marker id="SvgjsMarker1253" markerWidth="13" markerHeight="9" refX="9.5" refY="4.5" viewBox="0 0 13 9" orient="auto" markerUnits="userSpaceOnUse" stroke-dasharray="0,0"><path id="SvgjsPath1254" d="M0,0 L13,4.5 L0,9 L0,0" fill="#323232" stroke="#323232" stroke-width="1"></path></marker><marker id="SvgjsMarker1257" markerWidth="13" markerHeight="9" refX="9.5" refY="4.5" viewBox="0 0 13 9" orient="auto" markerUnits="userSpaceOnUse" stroke-dasharray="0,0"><path id="SvgjsPath1258" d="M0,0 L13,4.5 L0,9 L0,0" fill="#323232" stroke="#323232" stroke-width="1"></path></marker><marker id="SvgjsMarker1261" markerWidth="13" markerHeight="9" refX="9.5" refY="4.5" viewBox="0 0 13 9" orient="auto" markerUnits="userSpaceOnUse" stroke-dasharray="0,0"><path id="SvgjsPath1262" d="M0,0 L13,4.5 L0,9 L0,0" fill="#323232" stroke="#323232" stroke-width="1"></path></marker><marker id="SvgjsMarker1265" markerWidth="13" markerHeight="9" refX="9.5" refY="4.5" viewBox="0 0 13 9" orient="auto" markerUnits="userSpaceOnUse" stroke-dasharray="0,0"><path id="SvgjsPath1266" d="M0,0 L13,4.5 L0,9 L0,0" fill="#323232" stroke="#323232" stroke-width="1"></path></marker></defs><rect id="svgbackgroundid" width="486" height="315" fill="transparent"></rect><rect id="SvgjsRect1183" width="486" height="315" fill="url(#pattern_mark_0)"></rect><rect id="SvgjsRect1184" width="486" height="315" fill="url(#pattern_mark_1)"></rect><g id="SvgjsG1185" transform="translate(50,81)"><path id="SvgjsPath1186" d="M 6.666666666666666 4.125C 6.666666666666666 -1.375 13.333333333333332 -1.375 13.333333333333332 4.125C 13.333333333333332 9.625 6.666666666666666 9.625 6.666666666666666 4.125M 10 8.25L 10 24.75M 10 24.75L 1.6666666666666665 33M 10 24.75L 18.333333333333332 33M 0 16.5L 20 16.5" stroke="rgba(33,41,48,1)" stroke-width="1.5" fill-opacity="1" fill="#f4c18f"></path><path id="SvgjsPath1187" d="M 0 0L 20 0L 20 33L 0 33Z" stroke="none" fill="none"></path><g id="SvgjsG1188"><text id="SvgjsText1189" font-family="微软雅黑" text-anchor="middle" font-size="13px" width="60px" fill="#323232" font-weight="400" align="middle" lineHeight="125%" anchor="middle" family="微软雅黑" size="13px" weight="400" font-style="" opacity="1" y="37.375" transform="rotate(0)"><tspan id="SvgjsTspan1190" dy="16.25" x="10"><tspan id="SvgjsTspan1191" style="">张三用户</tspan></tspan></text></g></g><g id="SvgjsG1192" transform="translate(45,168)"><path id="SvgjsPath1193" d="M 6.666666666666666 4.125C 6.666666666666666 -1.375 13.333333333333332 -1.375 13.333333333333332 4.125C 13.333333333333332 9.625 6.666666666666666 9.625 6.666666666666666 4.125M 10 8.25L 10 24.75M 10 24.75L 1.6666666666666665 33M 10 24.75L 18.333333333333332 33M 0 16.5L 20 16.5" stroke="rgba(33,41,48,1)" stroke-width="1.5" fill-opacity="1" fill="#e74f4c"></path><path id="SvgjsPath1194" d="M 0 0L 20 0L 20 33L 0 33Z" stroke="none" fill="none"></path><g id="SvgjsG1195"><text id="SvgjsText1196" font-family="微软雅黑" text-anchor="middle" font-size="13px" width="60px" fill="#323232" font-weight="400" align="middle" lineHeight="125%" anchor="middle" family="微软雅黑" size="13px" weight="400" font-style="" opacity="1" y="37.375" transform="rotate(0)"><tspan id="SvgjsTspan1197" dy="16.25" x="10"><tspan id="SvgjsTspan1198" style="">李四用户</tspan></tspan></text></g></g><g id="SvgjsG1199" transform="translate(195.5,77.25)"><path id="SvgjsPath1200" d="M 0 4Q 0 0 4 0L 88 0Q 92 0 92 4L 92 36.5Q 92 40.5 88 40.5L 4 40.5Q 0 40.5 0 36.5Z" stroke="rgba(33,41,48,1)" stroke-width="1.5" fill-opacity="1" fill="#fadded"></path><g id="SvgjsG1201"><text id="SvgjsText1202" font-family="微软雅黑" text-anchor="middle" font-size="13px" width="72px" fill="#323232" font-weight="400" align="middle" lineHeight="125%" anchor="middle" family="微软雅黑" size="13px" weight="400" font-style="" opacity="1" y="9.625" transform="rotate(0)"><tspan id="SvgjsTspan1203" dy="16.25" x="46"><tspan id="SvgjsTspan1204" style="">管理员角色</tspan></tspan></text></g></g><g id="SvgjsG1205" transform="translate(191,164.25)"><path id="SvgjsPath1206" d="M 0 4Q 0 0 4 0L 97 0Q 101 0 101 4L 101 36.5Q 101 40.5 97 40.5L 4 40.5Q 0 40.5 0 36.5Z" stroke="rgba(33,41,48,1)" stroke-width="1.5" fill-opacity="1" fill="#fadded"></path><g id="SvgjsG1207"><text id="SvgjsText1208" font-family="微软雅黑" text-anchor="middle" font-size="13px" width="81px" fill="#323232" font-weight="400" align="middle" lineHeight="125%" anchor="middle" family="微软雅黑" size="13px" weight="400" font-style="" opacity="1" y="9.625" transform="rotate(0)"><tspan id="SvgjsTspan1209" dy="16.25" x="50.5"><tspan id="SvgjsTspan1210" style="">普通用户角色</tspan></tspan></text></g></g><g id="SvgjsG1211"><path id="SvgjsPath1212" d="M70.75 97.5L192.8 97.5" stroke="#323232" stroke-width="1.5" fill="none" marker-end="url(#SvgjsMarker1213)"></path></g><g id="SvgjsG1215"><path id="SvgjsPath1216" d="M65.75 184.5L188.3 184.5" stroke="#323232" stroke-width="1.5" fill="none" marker-end="url(#SvgjsMarker1217)"></path></g><g id="SvgjsG1219" transform="translate(380,25)"><path id="SvgjsPath1220" d="M 0 21.5C 0 -7.166666666666667 81 -7.166666666666667 81 21.5C 81 50.166666666666664 0 50.166666666666664 0 21.5Z" stroke="rgba(33,41,48,1)" stroke-width="1.5" fill-opacity="1" fill="#f1e4a2"></path><g id="SvgjsG1221"><text id="SvgjsText1222" font-family="微软雅黑" text-anchor="middle" font-size="13px" width="61px" fill="#323232" font-weight="400" align="middle" lineHeight="125%" anchor="middle" family="微软雅黑" size="13px" weight="400" font-style="" opacity="1" y="10.875" transform="rotate(0)"><tspan id="SvgjsTspan1223" dy="16.25" x="40.5"><tspan id="SvgjsTspan1224" style="">新增权限</tspan></tspan></text></g></g><g id="SvgjsG1225" transform="translate(380,87)"><path id="SvgjsPath1226" d="M 0 21.5C 0 -7.166666666666667 81 -7.166666666666667 81 21.5C 81 50.166666666666664 0 50.166666666666664 0 21.5Z" stroke="rgba(33,41,48,1)" stroke-width="1.5" fill-opacity="1" fill="#95da69"></path><g id="SvgjsG1227"><text id="SvgjsText1228" font-family="微软雅黑" text-anchor="middle" font-size="13px" width="61px" fill="#323232" font-weight="400" align="middle" lineHeight="125%" anchor="middle" family="微软雅黑" size="13px" weight="400" font-style="" opacity="1" y="10.875" transform="rotate(0)"><tspan id="SvgjsTspan1229" dy="16.25" x="40.5"><tspan id="SvgjsTspan1230" style="">删除权限</tspan></tspan></text></g></g><g id="SvgjsG1231" transform="translate(380,163)"><path id="SvgjsPath1232" d="M 0 21.5C 0 -7.166666666666667 81 -7.166666666666667 81 21.5C 81 50.166666666666664 0 50.166666666666664 0 21.5Z" stroke="rgba(33,41,48,1)" stroke-width="1.5" fill-opacity="1" fill="#70d5d7"></path><g id="SvgjsG1233"><text id="SvgjsText1234" font-family="微软雅黑" text-anchor="middle" font-size="13px" width="61px" fill="#323232" font-weight="400" align="middle" lineHeight="125%" anchor="middle" family="微软雅黑" size="13px" weight="400" font-style="" opacity="1" y="10.875" transform="rotate(0)"><tspan id="SvgjsTspan1235" dy="16.25" x="40.5"><tspan id="SvgjsTspan1236" style="">修改权限</tspan></tspan></text></g></g><g id="SvgjsG1237" transform="translate(376,247)"><path id="SvgjsPath1238" d="M 0 21.5C 0 -7.166666666666667 81 -7.166666666666667 81 21.5C 81 50.166666666666664 0 50.166666666666664 0 21.5Z" stroke="rgba(33,41,48,1)" stroke-width="1.5" fill-opacity="1" fill="#ed77b6"></path><g id="SvgjsG1239"><text id="SvgjsText1240" font-family="微软雅黑" text-anchor="middle" font-size="13px" width="61px" fill="#323232" font-weight="400" align="middle" lineHeight="125%" anchor="middle" family="微软雅黑" size="13px" weight="400" font-style="" opacity="1" y="10.875" transform="rotate(0)"><tspan id="SvgjsTspan1241" dy="16.25" x="40.5"><tspan id="SvgjsTspan1242" style="">查询权限</tspan></tspan></text></g></g><g id="SvgjsG1243"><path id="SvgjsPath1244" d="M292.5303300858899 185.03033008588991L374.09081169079633 266.59081169079633" stroke="#323232" stroke-width="1.5" fill="none" marker-end="url(#SvgjsMarker1245)"></path></g><g id="SvgjsG1247"><path id="SvgjsPath1248" d="M292.75 184.5L377.3 184.5" stroke="#323232" stroke-width="1.5" fill="none" marker-end="url(#SvgjsMarker1249)"></path></g><g id="SvgjsG1251"><path id="SvgjsPath1252" d="M288.15678679714625 97.13787971184371L377.6355675302736 47.80363303736267" stroke="#323232" stroke-width="1.5" fill="none" marker-end="url(#SvgjsMarker1253)"></path></g><g id="SvgjsG1255"><path id="SvgjsPath1256" d="M288.2447524508761 97.58856515632041L377.3188911768461 108.18116543724656" stroke="#323232" stroke-width="1.5" fill="none" marker-end="url(#SvgjsMarker1257)"></path></g><g id="SvgjsG1259"><path id="SvgjsPath1260" d="M288.04632335642884 98.01383926496553L378.0332359168561 182.65017864612412" stroke="#323232" stroke-width="1.5" fill="none" marker-end="url(#SvgjsMarker1261)"></path></g><g id="SvgjsG1263"><path id="SvgjsPath1264" d="M287.8447261302447 98.16608099742189L374.75898593111924 266.1021084092812" stroke="#323232" stroke-width="1.5" fill="none" marker-end="url(#SvgjsMarker1265)"></path></g></svg>