<svg id="SvgjsSvg1441" width="482" height="416.25" xmlns="http://www.w3.org/2000/svg" version="1.1" xmlns:xlink="http://www.w3.org/1999/xlink" xmlns:svgjs="http://svgjs.com/svgjs"><defs id="SvgjsDefs1442"><pattern patternUnits="userSpaceOnUse" id="pattern_mark_0" width="300" height="300"><text x="150" y="100" fill="rgba(229,229,229,0.8)" font-size="18" transform="rotate(-45, 150, 150)" style="dominant-baseline: middle; text-anchor: middle;"></text></pattern><pattern patternUnits="userSpaceOnUse" id="pattern_mark_1" width="300" height="300"><text x="150" y="200" fill="rgba(229,229,229,0.8)" font-size="18" transform="rotate(-45, 150, 150)" style="dominant-baseline: middle; text-anchor: middle;"></text></pattern><marker id="SvgjsMarker1467" markerWidth="13" markerHeight="9" refX="9.5" refY="4.5" viewBox="0 0 13 9" orient="auto" markerUnits="userSpaceOnUse" stroke-dasharray="0,0"><path id="SvgjsPath1468" d="M0,0 L13,4.5 L0,9 L0,0" fill="#323232" stroke="#323232" stroke-width="1"></path></marker><marker id="SvgjsMarker1495" markerWidth="13" markerHeight="9" refX="9.5" refY="4.5" viewBox="0 0 13 9" orient="auto" markerUnits="userSpaceOnUse" stroke-dasharray="0,0"><path id="SvgjsPath1496" d="M0,0 L13,4.5 L0,9 L0,0" fill="#323232" stroke="#323232" stroke-width="1"></path></marker><marker id="SvgjsMarker1499" markerWidth="13" markerHeight="9" refX="9.5" refY="4.5" viewBox="0 0 13 9" orient="auto" markerUnits="userSpaceOnUse" stroke-dasharray="0,0"><path id="SvgjsPath1500" d="M0,0 L13,4.5 L0,9 L0,0" fill="#323232" stroke="#323232" stroke-width="1"></path></marker><marker id="SvgjsMarker1503" markerWidth="13" markerHeight="9" refX="9.5" refY="4.5" viewBox="0 0 13 9" orient="auto" markerUnits="userSpaceOnUse" stroke-dasharray="0,0"><path id="SvgjsPath1504" d="M0,0 L13,4.5 L0,9 L0,0" fill="#323232" stroke="#323232" stroke-width="1"></path></marker><marker id="SvgjsMarker1507" markerWidth="13" markerHeight="9" refX="9.5" refY="4.5" viewBox="0 0 13 9" orient="auto" markerUnits="userSpaceOnUse" stroke-dasharray="0,0"><path id="SvgjsPath1508" d="M0,0 L13,4.5 L0,9 L0,0" fill="#323232" stroke="#323232" stroke-width="1"></path></marker><marker id="SvgjsMarker1521" markerWidth="13" markerHeight="9" refX="9.5" refY="4.5" viewBox="0 0 13 9" orient="auto" markerUnits="userSpaceOnUse" stroke-dasharray="0,0"><path id="SvgjsPath1522" d="M0,0 L13,4.5 L0,9 L0,0" fill="#e74f4c" stroke="#e74f4c" stroke-width="1"></path></marker></defs><rect id="svgbackgroundid" width="482" height="416.25" fill="transparent"></rect><rect id="SvgjsRect1444" width="482" height="416.25" fill="url(#pattern_mark_0)"></rect><rect id="SvgjsRect1445" width="482" height="416.25" fill="url(#pattern_mark_1)"></rect><g id="SvgjsG1446" transform="translate(45,81)"><path id="SvgjsPath1447" d="M 6.666666666666666 4.125C 6.666666666666666 -1.375 13.333333333333332 -1.375 13.333333333333332 4.125C 13.333333333333332 9.625 6.666666666666666 9.625 6.666666666666666 4.125M 10 8.25L 10 24.75M 10 24.75L 1.6666666666666665 33M 10 24.75L 18.333333333333332 33M 0 16.5L 20 16.5" stroke="rgba(33,41,48,1)" stroke-width="1.5" fill-opacity="1" fill="#f4c18f"></path><path id="SvgjsPath1448" d="M 0 0L 20 0L 20 33L 0 33Z" stroke="none" fill="none"></path><g id="SvgjsG1449"><text id="SvgjsText1450" font-family="微软雅黑" text-anchor="middle" font-size="13px" width="60px" fill="#323232" font-weight="400" align="middle" lineHeight="125%" anchor="middle" family="微软雅黑" size="13px" weight="400" font-style="" opacity="1" y="37.375" transform="rotate(0)"><tspan id="SvgjsTspan1451" dy="16.25" x="10"><tspan id="SvgjsTspan1452" style="">张三用户</tspan></tspan></text></g></g><g id="SvgjsG1453" transform="translate(190.5,77.25)"><path id="SvgjsPath1454" d="M 0 4Q 0 0 4 0L 88 0Q 92 0 92 4L 92 36.5Q 92 40.5 88 40.5L 4 40.5Q 0 40.5 0 36.5Z" stroke="rgba(33,41,48,1)" stroke-width="1.5" fill-opacity="1" fill="#fadded"></path><g id="SvgjsG1455"><text id="SvgjsText1456" font-family="微软雅黑" text-anchor="middle" font-size="13px" width="72px" fill="#323232" font-weight="400" align="middle" lineHeight="125%" anchor="middle" family="微软雅黑" size="13px" weight="400" font-style="" opacity="1" y="9.625" transform="rotate(0)"><tspan id="SvgjsTspan1457" dy="16.25" x="46"><tspan id="SvgjsTspan1458" style="">销售经理</tspan></tspan></text></g></g><g id="SvgjsG1459" transform="translate(190.5,266.75)"><path id="SvgjsPath1460" d="M 0 4Q 0 0 4 0L 88 0Q 92 0 92 4L 92 37.5Q 92 41.5 88 41.5L 4 41.5Q 0 41.5 0 37.5Z" stroke="rgba(33,41,48,1)" stroke-width="1.5" fill-opacity="1" fill="#fadded"></path><g id="SvgjsG1461"><text id="SvgjsText1462" font-family="微软雅黑" text-anchor="middle" font-size="13px" width="72px" fill="#323232" font-weight="400" align="middle" lineHeight="125%" anchor="middle" family="微软雅黑" size="13px" weight="400" font-style="" opacity="1" y="10.125" transform="rotate(0)"><tspan id="SvgjsTspan1463" dy="16.25" x="46"><tspan id="SvgjsTspan1464" style="">财务经理</tspan></tspan></text></g></g><g id="SvgjsG1465"><path id="SvgjsPath1466" d="M65.75 97.5L187.8 97.5" stroke="#323232" stroke-width="1.5" fill="none" marker-end="url(#SvgjsMarker1467)"></path></g><g id="SvgjsG1469" transform="translate(375,25)"><path id="SvgjsPath1470" d="M 0 21.5C 0 -7.166666666666667 81 -7.166666666666667 81 21.5C 81 50.166666666666664 0 50.166666666666664 0 21.5Z" stroke="rgba(33,41,48,1)" stroke-width="1.5" fill-opacity="1" fill="#f1e4a2"></path><g id="SvgjsG1471"><text id="SvgjsText1472" font-family="微软雅黑" text-anchor="middle" font-size="13px" width="61px" fill="#323232" font-weight="400" align="middle" lineHeight="125%" anchor="middle" family="微软雅黑" size="13px" weight="400" font-style="" opacity="1" y="10.875" transform="rotate(0)"><tspan id="SvgjsTspan1473" dy="16.25" x="40.5"><tspan id="SvgjsTspan1474" style="">新增权限</tspan></tspan></text></g></g><g id="SvgjsG1475" transform="translate(375,87)"><path id="SvgjsPath1476" d="M 0 21.5C 0 -7.166666666666667 81 -7.166666666666667 81 21.5C 81 50.166666666666664 0 50.166666666666664 0 21.5Z" stroke="rgba(33,41,48,1)" stroke-width="1.5" fill-opacity="1" fill="#95da69"></path><g id="SvgjsG1477"><text id="SvgjsText1478" font-family="微软雅黑" text-anchor="middle" font-size="13px" width="61px" fill="#323232" font-weight="400" align="middle" lineHeight="125%" anchor="middle" family="微软雅黑" size="13px" weight="400" font-style="" opacity="1" y="10.875" transform="rotate(0)"><tspan id="SvgjsTspan1479" dy="16.25" x="40.5"><tspan id="SvgjsTspan1480" style="">删除权限</tspan></tspan></text></g></g><g id="SvgjsG1481" transform="translate(376,266)"><path id="SvgjsPath1482" d="M 0 21.5C 0 -7.166666666666667 81 -7.166666666666667 81 21.5C 81 50.166666666666664 0 50.166666666666664 0 21.5Z" stroke="rgba(33,41,48,1)" stroke-width="1.5" fill-opacity="1" fill="#70d5d7"></path><g id="SvgjsG1483"><text id="SvgjsText1484" font-family="微软雅黑" text-anchor="middle" font-size="13px" width="61px" fill="#323232" font-weight="400" align="middle" lineHeight="125%" anchor="middle" family="微软雅黑" size="13px" weight="400" font-style="" opacity="1" y="10.875" transform="rotate(0)"><tspan id="SvgjsTspan1485" dy="16.25" x="40.5"><tspan id="SvgjsTspan1486" style="">修改权限</tspan></tspan></text></g></g><g id="SvgjsG1487" transform="translate(376,348.25)"><path id="SvgjsPath1488" d="M 0 21.5C 0 -7.166666666666667 81 -7.166666666666667 81 21.5C 81 50.166666666666664 0 50.166666666666664 0 21.5Z" stroke="rgba(33,41,48,1)" stroke-width="1.5" fill-opacity="1" fill="#ed77b6"></path><g id="SvgjsG1489"><text id="SvgjsText1490" font-family="微软雅黑" text-anchor="middle" font-size="13px" width="61px" fill="#323232" font-weight="400" align="middle" lineHeight="125%" anchor="middle" family="微软雅黑" size="13px" weight="400" font-style="" opacity="1" y="10.875" transform="rotate(0)"><tspan id="SvgjsTspan1491" dy="16.25" x="40.5"><tspan id="SvgjsTspan1492" style="">查询权限</tspan></tspan></text></g></g><g id="SvgjsG1493"><path id="SvgjsPath1494" d="M283.0631247361969 287.99536908611975L373.97275094969103 367.9666712899689" stroke="#323232" stroke-width="1.5" fill="none" marker-end="url(#SvgjsMarker1495)"></path></g><g id="SvgjsG1497"><path id="SvgjsPath1498" d="M283.2499758726505 288.24398415075416L373.30008685845826 287.5216570572851" stroke="#323232" stroke-width="1.5" fill="none" marker-end="url(#SvgjsMarker1499)"></path></g><g id="SvgjsG1501"><path id="SvgjsPath1502" d="M283.15678679714625 97.13787971184371L372.6355675302736 47.80363303736267" stroke="#323232" stroke-width="1.5" fill="none" marker-end="url(#SvgjsMarker1503)"></path></g><g id="SvgjsG1505"><path id="SvgjsPath1506" d="M283.2447524508761 97.58856515632041L372.3188911768461 108.18116543724656" stroke="#323232" stroke-width="1.5" fill="none" marker-end="url(#SvgjsMarker1507)"></path></g><g id="SvgjsG1509" transform="translate(184.06250381469727,173.25)"><path id="SvgjsPath1510" d="M 0 18.625C 0 -6.208333333333333 104.87499237060547 -6.208333333333333 104.87499237060547 18.625C 104.87499237060547 43.458333333333336 0 43.458333333333336 0 18.625Z" stroke-dasharray="10,6" stroke="rgba(33,41,48,1)" stroke-width="1.5" fill-opacity="1" fill="#ed9745"></path><g id="SvgjsG1511"><text id="SvgjsText1512" font-family="微软雅黑" text-anchor="middle" font-size="13px" width="85px" fill="#323232" font-weight="400" align="middle" lineHeight="125%" anchor="middle" family="微软雅黑" size="13px" weight="400" font-style="" opacity="1" y="-0.5" transform="rotate(0)"><tspan id="SvgjsTspan1513" dy="16.25" x="52.5"><tspan id="SvgjsTspan1514" style="">约束</tspan></tspan><tspan id="SvgjsTspan1515" dy="16.25" x="52.5"><tspan id="SvgjsTspan1516" style="">（SSD/DSD）</tspan></tspan></text></g></g><g id="SvgjsG1517"><path id="SvgjsPath1518" d="M236.50669267202198 118.4999701381663L236.98858477746063 172.5000298618337" stroke-dasharray="8,5" stroke="#323232" stroke-width="1.5" fill="none"></path></g><g id="SvgjsG1519"><path id="SvgjsPath1520" d="M65.41336105964966 98.12580558831422L189.01190018526123 285.24709988206877" stroke-dasharray="3,3" stroke="#e74f4c" stroke-width="1.5" fill="none" marker-end="url(#SvgjsMarker1521)"></path><rect id="SvgjsRect1523" width="52.333334" height="18" x="82.16862830793194" y="154.10721998810413" fill="#ffffff"></rect><text id="SvgjsText1524" font-family="微软雅黑" text-anchor="middle" font-size="13px" width="52.3333px" fill="#e74f4c" font-weight="400" align="top" lineHeight="16px" anchor="middle" family="微软雅黑" size="13px" weight="400" font-style="" opacity="1" y="151.48221998810413" transform="rotate(0)"><tspan id="SvgjsTspan1525" dy="16.25" x="108.16862830793194"><tspan id="SvgjsTspan1526" style="">赋权失败</tspan></tspan></text></g><g id="SvgjsG1527"><path id="SvgjsPath1528" d="M237.02009177172425 211.2495893872059L238.83255676132512 266.0004106127941" stroke-dasharray="8,5" stroke="#323232" stroke-width="1.5" fill="none"></path></g></svg>