<svg id="SvgjsSvg1529" width="482" height="477" xmlns="http://www.w3.org/2000/svg" version="1.1" xmlns:xlink="http://www.w3.org/1999/xlink" xmlns:svgjs="http://svgjs.com/svgjs"><defs id="SvgjsDefs1530"><pattern patternUnits="userSpaceOnUse" id="pattern_mark_0" width="300" height="300"><text x="150" y="100" fill="rgba(229,229,229,0.8)" font-size="18" transform="rotate(-45, 150, 150)" style="dominant-baseline: middle; text-anchor: middle;"></text></pattern><pattern patternUnits="userSpaceOnUse" id="pattern_mark_1" width="300" height="300"><text x="150" y="200" fill="rgba(229,229,229,0.8)" font-size="18" transform="rotate(-45, 150, 150)" style="dominant-baseline: middle; text-anchor: middle;"></text></pattern><marker id="SvgjsMarker1555" markerWidth="13" markerHeight="9" refX="9.5" refY="4.5" viewBox="0 0 13 9" orient="auto" markerUnits="userSpaceOnUse" stroke-dasharray="0,0"><path id="SvgjsPath1556" d="M0,0 L13,4.5 L0,9 L0,0" fill="#323232" stroke="#323232" stroke-width="1"></path></marker><marker id="SvgjsMarker1583" markerWidth="13" markerHeight="9" refX="9.5" refY="4.5" viewBox="0 0 13 9" orient="auto" markerUnits="userSpaceOnUse" stroke-dasharray="0,0"><path id="SvgjsPath1584" d="M0,0 L13,4.5 L0,9 L0,0" fill="#323232" stroke="#323232" stroke-width="1"></path></marker><marker id="SvgjsMarker1587" markerWidth="13" markerHeight="9" refX="9.5" refY="4.5" viewBox="0 0 13 9" orient="auto" markerUnits="userSpaceOnUse" stroke-dasharray="0,0"><path id="SvgjsPath1588" d="M0,0 L13,4.5 L0,9 L0,0" fill="#323232" stroke="#323232" stroke-width="1"></path></marker><marker id="SvgjsMarker1591" markerWidth="13" markerHeight="9" refX="9.5" refY="4.5" viewBox="0 0 13 9" orient="auto" markerUnits="userSpaceOnUse" stroke-dasharray="0,0"><path id="SvgjsPath1592" d="M0,0 L13,4.5 L0,9 L0,0" fill="#323232" stroke="#323232" stroke-width="1"></path></marker><marker id="SvgjsMarker1595" markerWidth="13" markerHeight="9" refX="9.5" refY="4.5" viewBox="0 0 13 9" orient="auto" markerUnits="userSpaceOnUse" stroke-dasharray="0,0"><path id="SvgjsPath1596" d="M0,0 L13,4.5 L0,9 L0,0" fill="#323232" stroke="#323232" stroke-width="1"></path></marker><marker id="SvgjsMarker1609" markerWidth="13" markerHeight="9" refX="9.5" refY="4.5" viewBox="0 0 13 9" orient="auto" markerUnits="userSpaceOnUse" stroke-dasharray="0,0"><path id="SvgjsPath1610" d="M0,0 L13,4.5 L0,9 L0,0" fill="#e74f4c" stroke="#e74f4c" stroke-width="1"></path></marker><marker id="SvgjsMarker1632" markerWidth="13" markerHeight="9" refX="9.5" refY="4.5" viewBox="0 0 13 9" orient="auto" markerUnits="userSpaceOnUse" stroke-dasharray="0,0"><path id="SvgjsPath1633" d="M0,0 L13,4.5 L0,9 L0,0" fill="#323232" stroke="#323232" stroke-width="1"></path></marker><marker id="SvgjsMarker1636" markerWidth="13" markerHeight="9" refX="9.5" refY="4.5" viewBox="0 0 13 9" orient="auto" markerUnits="userSpaceOnUse" stroke-dasharray="0,0"><path id="SvgjsPath1637" d="M0,0 L13,4.5 L0,9 L0,0" fill="#323232" stroke="#323232" stroke-width="1"></path></marker><marker id="SvgjsMarker1650" markerWidth="13" markerHeight="9" refX="9.5" refY="4.5" viewBox="0 0 13 9" orient="auto" markerUnits="userSpaceOnUse" stroke-dasharray="0,0"><path id="SvgjsPath1651" d="M0,0 L13,4.5 L0,9 L0,0" fill="#323232" stroke="#323232" stroke-width="1"></path></marker></defs><rect id="svgbackgroundid" width="482" height="477" fill="transparent"></rect><rect id="SvgjsRect1532" width="482" height="477" fill="url(#pattern_mark_0)"></rect><rect id="SvgjsRect1533" width="482" height="477" fill="url(#pattern_mark_1)"></rect><g id="SvgjsG1534" transform="translate(45,141.75)"><path id="SvgjsPath1535" d="M 6.666666666666666 4.125C 6.666666666666666 -1.375 13.333333333333332 -1.375 13.333333333333332 4.125C 13.333333333333332 9.625 6.666666666666666 9.625 6.666666666666666 4.125M 10 8.25L 10 24.75M 10 24.75L 1.6666666666666665 33M 10 24.75L 18.333333333333332 33M 0 16.5L 20 16.5" stroke="rgba(33,41,48,1)" stroke-width="1.5" fill-opacity="1" fill="#f4c18f"></path><path id="SvgjsPath1536" d="M 0 0L 20 0L 20 33L 0 33Z" stroke="none" fill="none"></path><g id="SvgjsG1537"><text id="SvgjsText1538" font-family="微软雅黑" text-anchor="middle" font-size="13px" width="60px" fill="#323232" font-weight="400" align="middle" lineHeight="125%" anchor="middle" family="微软雅黑" size="13px" weight="400" font-style="" opacity="1" y="37.375" transform="rotate(0)"><tspan id="SvgjsTspan1539" dy="16.25" x="10"><tspan id="SvgjsTspan1540" style="">张三用户</tspan></tspan></text></g></g><g id="SvgjsG1541" transform="translate(190.5,138)"><path id="SvgjsPath1542" d="M 0 4Q 0 0 4 0L 88 0Q 92 0 92 4L 92 36.5Q 92 40.5 88 40.5L 4 40.5Q 0 40.5 0 36.5Z" stroke="rgba(33,41,48,1)" stroke-width="1.5" fill-opacity="1" fill="#fadded"></path><g id="SvgjsG1543"><text id="SvgjsText1544" font-family="微软雅黑" text-anchor="middle" font-size="13px" width="72px" fill="#323232" font-weight="400" align="middle" lineHeight="125%" anchor="middle" family="微软雅黑" size="13px" weight="400" font-style="" opacity="1" y="9.625" transform="rotate(0)"><tspan id="SvgjsTspan1545" dy="16.25" x="46"><tspan id="SvgjsTspan1546" style="">销售经理</tspan></tspan></text></g></g><g id="SvgjsG1547" transform="translate(190.5,327.5)"><path id="SvgjsPath1548" d="M 0 4Q 0 0 4 0L 88 0Q 92 0 92 4L 92 37.5Q 92 41.5 88 41.5L 4 41.5Q 0 41.5 0 37.5Z" stroke="rgba(33,41,48,1)" stroke-width="1.5" fill-opacity="1" fill="#fadded"></path><g id="SvgjsG1549"><text id="SvgjsText1550" font-family="微软雅黑" text-anchor="middle" font-size="13px" width="72px" fill="#323232" font-weight="400" align="middle" lineHeight="125%" anchor="middle" family="微软雅黑" size="13px" weight="400" font-style="" opacity="1" y="10.125" transform="rotate(0)"><tspan id="SvgjsTspan1551" dy="16.25" x="46"><tspan id="SvgjsTspan1552" style="">财务经理</tspan></tspan></text></g></g><g id="SvgjsG1553"><path id="SvgjsPath1554" d="M65.75 158.25L187.8 158.25" stroke="#323232" stroke-width="1.5" fill="none" marker-end="url(#SvgjsMarker1555)"></path></g><g id="SvgjsG1557" transform="translate(376,138)"><path id="SvgjsPath1558" d="M 0 21.5C 0 -7.166666666666667 81 -7.166666666666667 81 21.5C 81 50.166666666666664 0 50.166666666666664 0 21.5Z" stroke="rgba(33,41,48,1)" stroke-width="1.5" fill-opacity="1" fill="#f1e4a2"></path><g id="SvgjsG1559"><text id="SvgjsText1560" font-family="微软雅黑" text-anchor="middle" font-size="13px" width="61px" fill="#323232" font-weight="400" align="middle" lineHeight="125%" anchor="middle" family="微软雅黑" size="13px" weight="400" font-style="" opacity="1" y="10.875" transform="rotate(0)"><tspan id="SvgjsTspan1561" dy="16.25" x="40.5"><tspan id="SvgjsTspan1562" style="">新增权限</tspan></tspan></text></g></g><g id="SvgjsG1563" transform="translate(376,231.125)"><path id="SvgjsPath1564" d="M 0 21.5C 0 -7.166666666666667 81 -7.166666666666667 81 21.5C 81 50.166666666666664 0 50.166666666666664 0 21.5Z" stroke="rgba(33,41,48,1)" stroke-width="1.5" fill-opacity="1" fill="#95da69"></path><g id="SvgjsG1565"><text id="SvgjsText1566" font-family="微软雅黑" text-anchor="middle" font-size="13px" width="61px" fill="#323232" font-weight="400" align="middle" lineHeight="125%" anchor="middle" family="微软雅黑" size="13px" weight="400" font-style="" opacity="1" y="10.875" transform="rotate(0)"><tspan id="SvgjsTspan1567" dy="16.25" x="40.5"><tspan id="SvgjsTspan1568" style="">删除权限</tspan></tspan></text></g></g><g id="SvgjsG1569" transform="translate(376,326.75)"><path id="SvgjsPath1570" d="M 0 21.5C 0 -7.166666666666667 81 -7.166666666666667 81 21.5C 81 50.166666666666664 0 50.166666666666664 0 21.5Z" stroke="rgba(33,41,48,1)" stroke-width="1.5" fill-opacity="1" fill="#70d5d7"></path><g id="SvgjsG1571"><text id="SvgjsText1572" font-family="微软雅黑" text-anchor="middle" font-size="13px" width="61px" fill="#323232" font-weight="400" align="middle" lineHeight="125%" anchor="middle" family="微软雅黑" size="13px" weight="400" font-style="" opacity="1" y="10.875" transform="rotate(0)"><tspan id="SvgjsTspan1573" dy="16.25" x="40.5"><tspan id="SvgjsTspan1574" style="">修改权限</tspan></tspan></text></g></g><g id="SvgjsG1575" transform="translate(376,409)"><path id="SvgjsPath1576" d="M 0 21.5C 0 -7.166666666666667 81 -7.166666666666667 81 21.5C 81 50.166666666666664 0 50.166666666666664 0 21.5Z" stroke="rgba(33,41,48,1)" stroke-width="1.5" fill-opacity="1" fill="#ed77b6"></path><g id="SvgjsG1577"><text id="SvgjsText1578" font-family="微软雅黑" text-anchor="middle" font-size="13px" width="61px" fill="#323232" font-weight="400" align="middle" lineHeight="125%" anchor="middle" family="微软雅黑" size="13px" weight="400" font-style="" opacity="1" y="10.875" transform="rotate(0)"><tspan id="SvgjsTspan1579" dy="16.25" x="40.5"><tspan id="SvgjsTspan1580" style="">查询权限</tspan></tspan></text></g></g><g id="SvgjsG1581"><path id="SvgjsPath1582" d="M283.0631247361969 348.74536908611975L373.97275094969103 428.7166712899689" stroke="#323232" stroke-width="1.5" fill="none" marker-end="url(#SvgjsMarker1583)"></path></g><g id="SvgjsG1585"><path id="SvgjsPath1586" d="M283.2499758726505 348.99398415075416L373.30008685845826 348.2716570572851" stroke="#323232" stroke-width="1.5" fill="none" marker-end="url(#SvgjsMarker1587)"></path></g><g id="SvgjsG1589"><path id="SvgjsPath1590" d="M283.2499329853335 158.2600258420499L373.3002412527995 159.4639069686203" stroke="#323232" stroke-width="1.5" fill="none" marker-end="url(#SvgjsMarker1591)"></path></g><g id="SvgjsG1593"><path id="SvgjsPath1594" d="M283.02785442722853 158.78279424138708L374.09972406197727 250.70694073100648" stroke="#323232" stroke-width="1.5" fill="none" marker-end="url(#SvgjsMarker1595)"></path></g><g id="SvgjsG1597" transform="translate(184.06250381469727,234)"><path id="SvgjsPath1598" d="M 0 18.625C 0 -6.208333333333333 104.87499237060547 -6.208333333333333 104.87499237060547 18.625C 104.87499237060547 43.458333333333336 0 43.458333333333336 0 18.625Z" stroke-dasharray="10,6" stroke="rgba(33,41,48,1)" stroke-width="1.5" fill-opacity="1" fill="#ed9745"></path><g id="SvgjsG1599"><text id="SvgjsText1600" font-family="微软雅黑" text-anchor="middle" font-size="13px" width="85px" fill="#323232" font-weight="400" align="middle" lineHeight="125%" anchor="middle" family="微软雅黑" size="13px" weight="400" font-style="" opacity="1" y="-0.5" transform="rotate(0)"><tspan id="SvgjsTspan1601" dy="16.25" x="52.5"><tspan id="SvgjsTspan1602" style="">约束</tspan></tspan><tspan id="SvgjsTspan1603" dy="16.25" x="52.5"><tspan id="SvgjsTspan1604" style="">（SSD/DSD）</tspan></tspan></text></g></g><g id="SvgjsG1605"><path id="SvgjsPath1606" d="M236.50669267202198 179.2499701381663L236.98858477746063 233.2500298618337" stroke-dasharray="8,5" stroke="#323232" stroke-width="1.5" fill="none"></path></g><g id="SvgjsG1607"><path id="SvgjsPath1608" d="M65.41336105964966 158.87580558831422L189.01190018526123 345.99709988206877" stroke-dasharray="3,3" stroke="#e74f4c" stroke-width="1.5" fill="none" marker-end="url(#SvgjsMarker1609)"></path><rect id="SvgjsRect1611" width="52.333334" height="18" x="82.16862830793194" y="214.85721998810413" fill="#ffffff"></rect><text id="SvgjsText1612" font-family="微软雅黑" text-anchor="middle" font-size="13px" width="52.3333px" fill="#e74f4c" font-weight="400" align="top" lineHeight="16px" anchor="middle" family="微软雅黑" size="13px" weight="400" font-style="" opacity="1" y="212.23221998810413" transform="rotate(0)"><tspan id="SvgjsTspan1613" dy="16.25" x="108.16862830793194"><tspan id="SvgjsTspan1614" style="">赋权失败</tspan></tspan></text></g><g id="SvgjsG1615"><path id="SvgjsPath1616" d="M237.02009177172425 271.9995893872059L238.83255676132512 326.7504106127941" stroke-dasharray="8,5" stroke="#323232" stroke-width="1.5" fill="none"></path></g><g id="SvgjsG1617" transform="translate(190.5,26.25)"><path id="SvgjsPath1618" d="M 0 4Q 0 0 4 0L 88 0Q 92 0 92 4L 92 36.5Q 92 40.5 88 40.5L 4 40.5Q 0 40.5 0 36.5Z" stroke="rgba(33,41,48,1)" stroke-width="1.5" fill-opacity="1" fill="#fadded"></path><g id="SvgjsG1619"><text id="SvgjsText1620" font-family="微软雅黑" text-anchor="middle" font-size="13px" width="72px" fill="#323232" font-weight="400" align="middle" lineHeight="125%" anchor="middle" family="微软雅黑" size="13px" weight="400" font-style="" opacity="1" y="9.625" transform="rotate(0)"><tspan id="SvgjsTspan1621" dy="16.25" x="46"><tspan id="SvgjsTspan1622" style="">普通销售</tspan></tspan></text></g></g><g id="SvgjsG1623" transform="translate(45,30)"><path id="SvgjsPath1624" d="M 6.666666666666666 4.125C 6.666666666666666 -1.375 13.333333333333332 -1.375 13.333333333333332 4.125C 13.333333333333332 9.625 6.666666666666666 9.625 6.666666666666666 4.125M 10 8.25L 10 24.75M 10 24.75L 1.6666666666666665 33M 10 24.75L 18.333333333333332 33M 0 16.5L 20 16.5" stroke="rgba(33,41,48,1)" stroke-width="1.5" fill-opacity="1" fill="#f4c18f"></path><path id="SvgjsPath1625" d="M 0 0L 20 0L 20 33L 0 33Z" stroke="none" fill="none"></path><g id="SvgjsG1626"><text id="SvgjsText1627" font-family="微软雅黑" text-anchor="middle" font-size="13px" width="60px" fill="#323232" font-weight="400" align="middle" lineHeight="125%" anchor="middle" family="微软雅黑" size="13px" weight="400" font-style="" opacity="1" y="37.375" transform="rotate(0)"><tspan id="SvgjsTspan1628" dy="16.25" x="10"><tspan id="SvgjsTspan1629" style="">李四用户</tspan></tspan></text></g></g><g id="SvgjsG1630"><path id="SvgjsPath1631" d="M65.75 46.5L187.8 46.5" stroke="#323232" stroke-width="1.5" fill="none" marker-end="url(#SvgjsMarker1632)"></path></g><g id="SvgjsG1634"><path id="SvgjsPath1635" d="M236.5 137.25L236.5 69.45" stroke-dasharray="8,5" stroke="#323232" stroke-width="1.5" fill="none" marker-end="url(#SvgjsMarker1636)"></path><rect id="SvgjsRect1638" width="26.333334" height="18" x="223.333333" y="95.81701512386925" fill="#ffffff"></rect><text id="SvgjsText1639" font-family="微软雅黑" text-anchor="middle" font-size="13px" width="26.3333px" fill="#323232" font-weight="400" align="top" lineHeight="16px" anchor="middle" family="微软雅黑" size="13px" weight="400" font-style="" opacity="1" y="93.19201512386925" transform="rotate(0)"><tspan id="SvgjsTspan1640" dy="16.25" x="236.333333"><tspan id="SvgjsTspan1641" style="">继承</tspan></tspan></text></g><g id="SvgjsG1642" transform="translate(372,25)"><path id="SvgjsPath1643" d="M 0 21.5C 0 -7.166666666666667 81 -7.166666666666667 81 21.5C 81 50.166666666666664 0 50.166666666666664 0 21.5Z" stroke="rgba(33,41,48,1)" stroke-width="1.5" fill-opacity="1" fill="#fcf9ea"></path><g id="SvgjsG1644"><text id="SvgjsText1645" font-family="微软雅黑" text-anchor="middle" font-size="13px" width="61px" fill="#323232" font-weight="400" align="middle" lineHeight="125%" anchor="middle" family="微软雅黑" size="13px" weight="400" font-style="" opacity="1" y="10.875" transform="rotate(0)"><tspan id="SvgjsTspan1646" dy="16.25" x="40.5"><tspan id="SvgjsTspan1647" style="">编辑权限</tspan></tspan></text></g></g><g id="SvgjsG1648"><path id="SvgjsPath1649" d="M283.25 46.5L369.3 46.5" stroke="#323232" stroke-width="1.5" fill="none" marker-end="url(#SvgjsMarker1650)"></path></g></svg>