<svg id="SvgjsSvg1354" width="486" height="374" xmlns="http://www.w3.org/2000/svg" version="1.1" xmlns:xlink="http://www.w3.org/1999/xlink" xmlns:svgjs="http://svgjs.com/svgjs"><defs id="SvgjsDefs1355"><pattern patternUnits="userSpaceOnUse" id="pattern_mark_0" width="300" height="300"><text x="150" y="100" fill="rgba(229,229,229,0.8)" font-size="18" transform="rotate(-45, 150, 150)" style="dominant-baseline: middle; text-anchor: middle;"></text></pattern><pattern patternUnits="userSpaceOnUse" id="pattern_mark_1" width="300" height="300"><text x="150" y="200" fill="rgba(229,229,229,0.8)" font-size="18" transform="rotate(-45, 150, 150)" style="dominant-baseline: middle; text-anchor: middle;"></text></pattern><marker id="SvgjsMarker1387" markerWidth="13" markerHeight="9" refX="9.5" refY="4.5" viewBox="0 0 13 9" orient="auto" markerUnits="userSpaceOnUse" stroke-dasharray="0,0"><path id="SvgjsPath1388" d="M0,0 L13,4.5 L0,9 L0,0" fill="#323232" stroke="#323232" stroke-width="1"></path></marker><marker id="SvgjsMarker1391" markerWidth="13" markerHeight="9" refX="9.5" refY="4.5" viewBox="0 0 13 9" orient="auto" markerUnits="userSpaceOnUse" stroke-dasharray="0,0"><path id="SvgjsPath1392" d="M0,0 L13,4.5 L0,9 L0,0" fill="#323232" stroke="#323232" stroke-width="1"></path></marker><marker id="SvgjsMarker1419" markerWidth="13" markerHeight="9" refX="9.5" refY="4.5" viewBox="0 0 13 9" orient="auto" markerUnits="userSpaceOnUse" stroke-dasharray="0,0"><path id="SvgjsPath1420" d="M0,0 L13,4.5 L0,9 L0,0" fill="#323232" stroke="#323232" stroke-width="1"></path></marker><marker id="SvgjsMarker1423" markerWidth="13" markerHeight="9" refX="9.5" refY="4.5" viewBox="0 0 13 9" orient="auto" markerUnits="userSpaceOnUse" stroke-dasharray="0,0"><path id="SvgjsPath1424" d="M0,0 L13,4.5 L0,9 L0,0" fill="#323232" stroke="#323232" stroke-width="1"></path></marker><marker id="SvgjsMarker1427" markerWidth="13" markerHeight="9" refX="9.5" refY="4.5" viewBox="0 0 13 9" orient="auto" markerUnits="userSpaceOnUse" stroke-dasharray="0,0"><path id="SvgjsPath1428" d="M0,0 L13,4.5 L0,9 L0,0" fill="#323232" stroke="#323232" stroke-width="1"></path></marker><marker id="SvgjsMarker1431" markerWidth="13" markerHeight="9" refX="9.5" refY="4.5" viewBox="0 0 13 9" orient="auto" markerUnits="userSpaceOnUse" stroke-dasharray="0,0"><path id="SvgjsPath1432" d="M0,0 L13,4.5 L0,9 L0,0" fill="#323232" stroke="#323232" stroke-width="1"></path></marker><marker id="SvgjsMarker1435" markerWidth="13" markerHeight="9" refX="9.5" refY="4.5" viewBox="0 0 13 9" orient="auto" markerUnits="userSpaceOnUse" stroke-dasharray="0,0"><path id="SvgjsPath1436" d="M0,0 L13,4.5 L0,9 L0,0" fill="#323232" stroke="#323232" stroke-width="1"></path></marker></defs><rect id="svgbackgroundid" width="486" height="374" fill="transparent"></rect><rect id="SvgjsRect1357" width="486" height="374" fill="url(#pattern_mark_0)"></rect><rect id="SvgjsRect1358" width="486" height="374" fill="url(#pattern_mark_1)"></rect><g id="SvgjsG1359" transform="translate(50,81)"><path id="SvgjsPath1360" d="M 6.666666666666666 4.125C 6.666666666666666 -1.375 13.333333333333332 -1.375 13.333333333333332 4.125C 13.333333333333332 9.625 6.666666666666666 9.625 6.666666666666666 4.125M 10 8.25L 10 24.75M 10 24.75L 1.6666666666666665 33M 10 24.75L 18.333333333333332 33M 0 16.5L 20 16.5" stroke="rgba(33,41,48,1)" stroke-width="1.5" fill-opacity="1" fill="#f4c18f"></path><path id="SvgjsPath1361" d="M 0 0L 20 0L 20 33L 0 33Z" stroke="none" fill="none"></path><g id="SvgjsG1362"><text id="SvgjsText1363" font-family="微软雅黑" text-anchor="middle" font-size="13px" width="60px" fill="#323232" font-weight="400" align="middle" lineHeight="125%" anchor="middle" family="微软雅黑" size="13px" weight="400" font-style="" opacity="1" y="37.375" transform="rotate(0)"><tspan id="SvgjsTspan1364" dy="16.25" x="10"><tspan id="SvgjsTspan1365" style="">张三用户</tspan></tspan></text></g></g><g id="SvgjsG1366" transform="translate(45,227)"><path id="SvgjsPath1367" d="M 6.666666666666666 4.125C 6.666666666666666 -1.375 13.333333333333332 -1.375 13.333333333333332 4.125C 13.333333333333332 9.625 6.666666666666666 9.625 6.666666666666666 4.125M 10 8.25L 10 24.75M 10 24.75L 1.6666666666666665 33M 10 24.75L 18.333333333333332 33M 0 16.5L 20 16.5" stroke="rgba(33,41,48,1)" stroke-width="1.5" fill-opacity="1" fill="#e74f4c"></path><path id="SvgjsPath1368" d="M 0 0L 20 0L 20 33L 0 33Z" stroke="none" fill="none"></path><g id="SvgjsG1369"><text id="SvgjsText1370" font-family="微软雅黑" text-anchor="middle" font-size="13px" width="60px" fill="#323232" font-weight="400" align="middle" lineHeight="125%" anchor="middle" family="微软雅黑" size="13px" weight="400" font-style="" opacity="1" y="37.375" transform="rotate(0)"><tspan id="SvgjsTspan1371" dy="16.25" x="10"><tspan id="SvgjsTspan1372" style="">李四用户</tspan></tspan></text></g></g><g id="SvgjsG1373" transform="translate(195.5,77.25)"><path id="SvgjsPath1374" d="M 0 4Q 0 0 4 0L 88 0Q 92 0 92 4L 92 36.5Q 92 40.5 88 40.5L 4 40.5Q 0 40.5 0 36.5Z" stroke="rgba(33,41,48,1)" stroke-width="1.5" fill-opacity="1" fill="#fadded"></path><g id="SvgjsG1375"><text id="SvgjsText1376" font-family="微软雅黑" text-anchor="middle" font-size="13px" width="72px" fill="#323232" font-weight="400" align="middle" lineHeight="125%" anchor="middle" family="微软雅黑" size="13px" weight="400" font-style="" opacity="1" y="9.625" transform="rotate(0)"><tspan id="SvgjsTspan1377" dy="16.25" x="46"><tspan id="SvgjsTspan1378" style="">高级销售</tspan></tspan></text></g></g><g id="SvgjsG1379" transform="translate(191,223.25)"><path id="SvgjsPath1380" d="M 0 4Q 0 0 4 0L 97 0Q 101 0 101 4L 101 36.5Q 101 40.5 97 40.5L 4 40.5Q 0 40.5 0 36.5Z" stroke="rgba(33,41,48,1)" stroke-width="1.5" fill-opacity="1" fill="#fadded"></path><g id="SvgjsG1381"><text id="SvgjsText1382" font-family="微软雅黑" text-anchor="middle" font-size="13px" width="81px" fill="#323232" font-weight="400" align="middle" lineHeight="125%" anchor="middle" family="微软雅黑" size="13px" weight="400" font-style="" opacity="1" y="9.625" transform="rotate(0)"><tspan id="SvgjsTspan1383" dy="16.25" x="50.5"><tspan id="SvgjsTspan1384" style="">初级销售</tspan></tspan></text></g></g><g id="SvgjsG1385"><path id="SvgjsPath1386" d="M70.75 97.5L192.8 97.5" stroke="#323232" stroke-width="1.5" fill="none" marker-end="url(#SvgjsMarker1387)"></path></g><g id="SvgjsG1389"><path id="SvgjsPath1390" d="M65.75 243.5L188.3 243.5" stroke="#323232" stroke-width="1.5" fill="none" marker-end="url(#SvgjsMarker1391)"></path></g><g id="SvgjsG1393" transform="translate(380,25)"><path id="SvgjsPath1394" d="M 0 21.5C 0 -7.166666666666667 81 -7.166666666666667 81 21.5C 81 50.166666666666664 0 50.166666666666664 0 21.5Z" stroke="rgba(33,41,48,1)" stroke-width="1.5" fill-opacity="1" fill="#f1e4a2"></path><g id="SvgjsG1395"><text id="SvgjsText1396" font-family="微软雅黑" text-anchor="middle" font-size="13px" width="61px" fill="#323232" font-weight="400" align="middle" lineHeight="125%" anchor="middle" family="微软雅黑" size="13px" weight="400" font-style="" opacity="1" y="10.875" transform="rotate(0)"><tspan id="SvgjsTspan1397" dy="16.25" x="40.5"><tspan id="SvgjsTspan1398" style="">新增权限</tspan></tspan></text></g></g><g id="SvgjsG1399" transform="translate(380,87)"><path id="SvgjsPath1400" d="M 0 21.5C 0 -7.166666666666667 81 -7.166666666666667 81 21.5C 81 50.166666666666664 0 50.166666666666664 0 21.5Z" stroke="rgba(33,41,48,1)" stroke-width="1.5" fill-opacity="1" fill="#95da69"></path><g id="SvgjsG1401"><text id="SvgjsText1402" font-family="微软雅黑" text-anchor="middle" font-size="13px" width="61px" fill="#323232" font-weight="400" align="middle" lineHeight="125%" anchor="middle" family="微软雅黑" size="13px" weight="400" font-style="" opacity="1" y="10.875" transform="rotate(0)"><tspan id="SvgjsTspan1403" dy="16.25" x="40.5"><tspan id="SvgjsTspan1404" style="">删除权限</tspan></tspan></text></g></g><g id="SvgjsG1405" transform="translate(380,222)"><path id="SvgjsPath1406" d="M 0 21.5C 0 -7.166666666666667 81 -7.166666666666667 81 21.5C 81 50.166666666666664 0 50.166666666666664 0 21.5Z" stroke="rgba(33,41,48,1)" stroke-width="1.5" fill-opacity="1" fill="#70d5d7"></path><g id="SvgjsG1407"><text id="SvgjsText1408" font-family="微软雅黑" text-anchor="middle" font-size="13px" width="61px" fill="#323232" font-weight="400" align="middle" lineHeight="125%" anchor="middle" family="微软雅黑" size="13px" weight="400" font-style="" opacity="1" y="10.875" transform="rotate(0)"><tspan id="SvgjsTspan1409" dy="16.25" x="40.5"><tspan id="SvgjsTspan1410" style="">修改权限</tspan></tspan></text></g></g><g id="SvgjsG1411" transform="translate(376,306)"><path id="SvgjsPath1412" d="M 0 21.5C 0 -7.166666666666667 81 -7.166666666666667 81 21.5C 81 50.166666666666664 0 50.166666666666664 0 21.5Z" stroke="rgba(33,41,48,1)" stroke-width="1.5" fill-opacity="1" fill="#ed77b6"></path><g id="SvgjsG1413"><text id="SvgjsText1414" font-family="微软雅黑" text-anchor="middle" font-size="13px" width="61px" fill="#323232" font-weight="400" align="middle" lineHeight="125%" anchor="middle" family="微软雅黑" size="13px" weight="400" font-style="" opacity="1" y="10.875" transform="rotate(0)"><tspan id="SvgjsTspan1415" dy="16.25" x="40.5"><tspan id="SvgjsTspan1416" style="">查询权限</tspan></tspan></text></g></g><g id="SvgjsG1417"><path id="SvgjsPath1418" d="M292.5303300858899 244.0303300858899L374.09081169079633 325.59081169079633" stroke="#323232" stroke-width="1.5" fill="none" marker-end="url(#SvgjsMarker1419)"></path></g><g id="SvgjsG1421"><path id="SvgjsPath1422" d="M292.75 243.5L377.3 243.5" stroke="#323232" stroke-width="1.5" fill="none" marker-end="url(#SvgjsMarker1423)"></path></g><g id="SvgjsG1425"><path id="SvgjsPath1426" d="M288.15678679714625 97.13787971184371L377.6355675302736 47.80363303736267" stroke="#323232" stroke-width="1.5" fill="none" marker-end="url(#SvgjsMarker1427)"></path></g><g id="SvgjsG1429"><path id="SvgjsPath1430" d="M288.2447524508761 97.58856515632041L377.3188911768461 108.18116543724656" stroke="#323232" stroke-width="1.5" fill="none" marker-end="url(#SvgjsMarker1431)"></path></g><g id="SvgjsG1433"><path id="SvgjsPath1434" d="M241.5 118.5L241.5 220.55" stroke-dasharray="8,5" stroke="#323232" stroke-width="1.5" fill="none" marker-end="url(#SvgjsMarker1435)"></path><rect id="SvgjsRect1437" width="26.333334" height="18" x="228.333333" y="145.16263440860214" fill="#ffffff"></rect><text id="SvgjsText1438" font-family="微软雅黑" text-anchor="middle" font-size="13px" width="26.3333px" fill="#323232" font-weight="400" align="top" lineHeight="16px" anchor="middle" family="微软雅黑" size="13px" weight="400" font-style="" opacity="1" y="142.53763440860214" transform="rotate(0)"><tspan id="SvgjsTspan1439" dy="16.25" x="241.333333"><tspan id="SvgjsTspan1440" style="">继承</tspan></tspan></text></g></svg>